<svg width="206" height="141" viewBox="0 0 206 141" fill="none" xmlns="http://www.w3.org/2000/svg">
<path d="M47.8664 75.2249C48.4865 76.4683 49.1584 77.6598 49.8818 78.7996C50.7087 79.8358 51.2771 81.1309 51.5872 82.6852C52.0006 83.2033 52.2073 83.7731 52.2073 84.3948C52.2073 85.0165 52.3107 85.6382 52.5174 86.2599C53.2409 88.8503 54.1194 91.3889 55.153 93.8757C56.2899 96.2588 57.3751 98.5384 58.4087 100.714C58.6154 102.476 59.1321 103.926 59.959 105.066C60.8892 106.102 61.4576 107.501 61.6643 109.263C62.4912 111.231 63.4214 113.096 64.4549 114.858C65.4885 116.619 66.522 118.381 67.5556 120.142C68.0724 120.453 68.5891 120.764 69.1059 121.075C69.6227 121.386 70.1912 121.748 70.8113 122.163C71.2247 122.37 71.5865 122.577 71.8965 122.784C72.2066 123.095 72.62 123.354 73.1368 123.562C73.6536 123.769 74.1187 123.924 74.5321 124.028C75.0489 124.131 75.5656 124.287 76.0824 124.494C76.4958 124.701 76.8059 124.96 77.0126 125.271C77.3227 125.582 77.6327 125.841 77.9428 126.048C78.3562 126.152 78.7696 126.256 79.1831 126.359C79.5965 126.566 80.0099 126.618 80.4233 126.515C82.1804 127.343 83.679 127.913 84.9193 128.224C86.1595 128.535 87.3481 128.898 88.485 129.312C89.0018 129.519 89.6219 129.727 90.3454 129.934C91.1723 130.141 91.8441 130.245 92.3609 130.245C93.1877 130.659 93.7045 131.074 93.9112 131.488C94.2213 132.006 94.5313 132.524 94.8414 133.042C95.2548 133.664 95.7716 134.182 96.3917 134.597C97.0119 135.115 97.8387 135.425 98.8722 135.529C99.1823 135.736 99.389 135.995 99.4924 136.306C99.6991 136.721 100.009 137.083 100.423 137.394C101.456 138.223 101.87 138.741 101.663 138.948C101.559 139.156 101.456 139.415 101.353 139.726C100.629 139.829 99.9058 139.933 99.1823 140.036C98.4588 140.14 97.942 140.451 97.632 140.969C97.0119 140.969 96.2884 140.969 95.4615 140.969C94.738 141.073 94.1179 140.917 93.6011 140.503C91.8441 140.606 90.2421 140.503 88.7951 140.192C87.3481 139.881 85.5911 139.622 83.524 139.415C82.3871 139.415 81.3018 139.466 80.2683 139.57C79.2347 139.674 78.3045 139.57 77.4777 139.259C75.2039 138.327 73.3952 137.498 72.0516 136.772C70.7079 136.047 69.3126 135.27 67.8657 134.441C66.7288 133.923 65.6952 133.301 64.765 132.576C63.8348 131.851 62.8013 131.229 61.6643 130.711C60.2174 129.053 58.8221 127.447 57.4785 125.893C56.1348 124.339 54.8946 122.629 53.7577 120.764C53.3442 120.039 52.9825 119.469 52.6724 119.054C52.4657 118.64 52.259 118.225 52.0523 117.811C51.6389 116.878 51.2771 116.308 50.9671 116.101C50.657 115.894 50.3986 115.583 50.1919 115.169C49.8818 114.651 49.6235 114.029 49.4167 113.304C49.21 112.578 49.0033 111.853 48.7966 111.128C48.5899 110.195 48.3832 109.314 48.1765 108.485C47.9698 107.553 47.7114 106.672 47.4013 105.843C47.1946 105.222 46.8845 104.703 46.4711 104.289C46.1611 103.771 45.9543 103.149 45.851 102.424C45.4376 101.284 45.0241 100.144 44.6107 99.0046C44.3007 97.7612 44.0423 96.466 43.8356 95.119C43.5255 93.1503 43.1121 91.6479 42.5953 90.6118C42.1819 89.472 41.8718 88.384 41.6651 87.3479C41.045 85.7936 40.1664 83.9804 39.0295 81.9081C37.8926 79.8358 36.9108 78.0225 36.0839 76.4683C35.8772 75.9502 35.7222 75.5357 35.6188 75.2249C35.6188 74.914 35.4638 74.655 35.1537 74.4477C34.6369 74.9658 34.1718 75.8466 33.7584 77.0899C33.345 78.3333 32.9316 79.2659 32.5182 79.8876C31.3812 81.7526 30.6578 83.2551 30.3477 84.3948C30.0376 85.431 29.5725 86.4671 28.9524 87.5033C28.6423 89.5756 28.0739 91.3889 27.247 92.9431C27.0403 94.3937 26.5235 95.4817 25.6967 96.207C25.1799 98.0721 24.5598 99.9372 23.8363 101.802C23.1128 103.667 22.441 105.481 21.8209 107.242C21.6142 108.175 21.3558 109.055 21.0457 109.884C20.7357 110.713 20.6323 111.542 20.7357 112.371C20.7357 113.2 20.5806 113.925 20.2706 114.547C20.0638 115.169 19.8571 115.894 19.6504 116.723C19.1336 118.173 17.9967 119.054 16.2397 119.365C14.586 119.676 12.984 120.039 11.4337 120.453C10.8135 120.66 10.0901 120.867 9.26322 121.075C8.02295 121.386 6.67934 121.904 5.23236 122.629C3.88874 123.458 2.49345 123.769 1.04647 123.562C0.116275 123.354 -0.193791 122.784 0.116275 121.852C0.322985 121.023 0.684729 120.401 1.20151 119.987C1.71828 118.847 2.28674 117.707 2.90687 116.567C3.42364 115.428 3.9921 114.34 4.61223 113.304C4.81894 112.371 5.18068 111.646 5.69746 111.128C6.31759 110.713 6.73101 110.143 6.93772 109.418C7.14443 109.211 7.29947 108.952 7.40282 108.641C7.60953 108.33 7.76457 108.071 7.86792 107.864C8.07463 107.346 8.17799 106.828 8.17799 106.31C8.28134 105.688 8.43637 105.118 8.64309 104.6C8.95315 103.771 9.21154 102.942 9.41825 102.113C9.72832 101.181 10.1417 100.196 10.6585 99.16C10.8652 98.5384 11.0719 97.9167 11.2786 97.295C11.5887 96.6733 11.8988 95.948 12.2088 95.119C12.4156 94.4973 12.7256 93.9275 13.139 93.4094C13.5525 92.7877 13.9142 92.166 14.2243 91.5443C14.8444 90.0937 15.3095 88.9539 15.6196 88.125C15.9296 87.1925 16.3431 86.3117 16.8598 85.4828C17.6867 83.3069 18.6169 81.3382 19.6504 79.5767C20.7873 77.7116 21.8726 75.7429 22.9061 73.6706C23.1128 73.3598 23.3195 73.1007 23.5262 72.8935C23.733 72.5827 23.888 72.22 23.9913 71.8056C24.4048 71.5983 24.7148 71.2357 24.9215 70.7176C25.1283 70.1995 25.4383 69.8369 25.8517 69.6296C26.2652 69.0079 26.5752 68.3862 26.7819 67.7645C26.9886 67.1429 27.2987 66.6248 27.7121 66.2103C28.849 64.138 29.8309 62.0657 30.6578 59.9934C30.8645 59.4753 30.9678 59.009 30.9678 58.5946C31.0712 58.1801 31.2262 57.7656 31.4329 57.3512C32.0531 56.6259 32.4148 56.056 32.5182 55.6415C32.7249 55.2271 32.9316 54.8644 33.1383 54.5536C33.5517 53.8283 33.9651 53.1548 34.3786 52.5331C34.8953 51.8078 35.3604 51.0306 35.7738 50.2017C36.2906 48.6475 36.9624 47.2487 37.7893 46.0053C38.7195 44.6583 39.443 43.2595 39.9597 41.8089C40.5799 40.8763 40.9416 40.3582 41.045 40.2546C41.1483 40.151 41.2 39.9956 41.2 39.7884C42.5436 37.198 43.7322 34.8148 44.7658 32.6389C45.9027 30.3593 47.0396 28.028 48.1765 25.6448C47.0396 25.8521 46.006 26.3701 45.0758 27.1991C44.249 28.028 43.3705 28.5979 42.4403 28.9087C42.2336 29.2196 42.0268 29.4786 41.8201 29.6858C41.6134 29.8931 41.4067 30.1003 41.2 30.3075C38.6161 31.5509 36.2389 32.9497 34.0685 34.504C31.898 36.0582 29.986 37.9751 28.3323 40.2546C27.8155 40.4619 27.247 40.7727 26.6269 41.1872C26.1101 41.498 25.5934 41.8089 25.0766 42.1197C24.3531 42.4306 23.4229 42.6378 22.286 42.7414C21.1491 42.845 20.2706 42.4824 19.6504 41.6534C19.237 38.6486 19.4954 36.4209 20.4256 34.9702C21.3558 33.5196 22.2343 32.069 23.0611 30.6184C24.4048 29.375 25.8517 28.287 27.4021 27.3545C28.9524 26.3183 30.451 25.334 31.898 24.4015C33.2416 23.4689 34.0685 22.8472 34.3786 22.5364C34.792 22.2255 35.2054 21.9665 35.6188 21.7593C38.0993 20.1014 40.6832 18.2881 43.3705 16.3194C45.0241 14.8688 46.8329 13.7809 48.7966 13.0556C50.7604 12.4339 52.414 11.9676 53.7577 11.6567C55.1013 11.2423 56.3415 10.776 57.4785 10.2579C60.7858 9.63624 63.8348 8.85913 66.6254 7.92659C69.416 6.89043 72.2583 5.85428 75.1522 4.81812C76.5992 4.61089 77.9428 4.50727 79.1831 4.50727C80.5267 4.40366 81.9737 4.30004 83.524 4.19643C83.9374 4.50727 84.5059 4.6627 85.2293 4.6627C86.0562 4.55908 86.7797 4.55908 87.3998 4.6627C88.2267 4.86993 89.0018 5.07716 89.7253 5.28439C90.5521 5.38801 91.379 5.54343 92.2058 5.75066C92.826 6.37235 93.7045 6.83862 94.8414 7.14947C96.0817 7.3567 97.2186 7.66755 98.2521 8.08201C99.079 8.49647 99.8541 8.91093 100.578 9.3254C101.301 9.63624 102.076 9.9989 102.903 10.4134C103.627 11.2423 103.937 11.9676 103.833 12.5893C103.833 13.211 103.885 14.0917 103.988 15.2315C104.092 15.7496 104.143 16.2676 104.143 16.7857C104.247 17.2002 104.35 17.6664 104.453 18.1845C104.453 18.599 104.505 18.9616 104.608 19.2725C104.815 19.5833 104.919 19.8942 104.919 20.205C105.022 21.9665 105.125 23.728 105.229 25.4894C105.435 27.1473 105.435 28.8569 105.229 30.6184C105.022 31.8618 104.66 32.9497 104.143 33.8823C103.627 34.7112 103.11 35.6955 102.593 36.8353C101.973 37.8715 101.301 38.9076 100.578 39.9438C99.8541 40.9799 99.079 42.0679 98.2521 43.2077C97.942 43.4149 97.632 43.6221 97.3219 43.8294C97.1152 43.933 96.9602 44.192 96.8568 44.6065C95.5132 45.6426 94.2729 46.4716 93.136 47.0933C91.9991 47.7149 91.0172 48.3366 90.1904 48.9583C89.777 49.1656 89.3636 49.3728 88.9501 49.58C88.5367 49.7873 88.1233 49.9945 87.7099 50.2017C87.2965 50.6162 86.7797 51.0306 86.1595 51.4451C85.5394 51.8596 84.971 52.274 84.4542 52.6885C83.6273 53.5174 82.9039 54.0873 82.2837 54.3981C81.6636 54.709 81.2502 55.2271 81.0435 55.9524C78.6663 57.2994 76.5475 58.8536 74.6871 60.6151C72.8267 62.2729 70.8113 63.8272 68.6408 65.2778C67.814 66.0031 66.9871 66.7284 66.1603 67.4537C65.4368 68.179 64.5583 68.8007 63.5247 69.3188C62.0778 69.9405 60.9925 70.5104 60.269 71.0284C59.6489 71.5465 58.7704 71.9092 57.6335 72.1164C56.2899 72.9453 54.7395 73.6188 52.9825 74.1369C51.3288 74.655 49.6235 75.0176 47.8664 75.2249ZM82.4388 14.6098C82.0253 14.7134 81.5086 14.7652 80.8884 14.7652C80.2683 14.7652 79.5965 14.8688 78.873 15.0761C77.8394 15.2833 76.7025 15.6459 75.4623 16.164C74.222 16.6821 72.9817 17.0448 71.7415 17.252C70.0878 17.6664 68.7442 18.0291 67.7106 18.3399C66.7804 18.6508 66.1086 18.9098 65.6952 19.1171C65.4885 19.3243 65.3335 19.6869 65.2301 20.205C65.2301 20.7231 65.1267 21.1376 64.92 21.4484C64.5066 22.4846 63.9898 23.4689 63.3697 24.4015C62.7496 25.2304 62.2845 26.0593 61.9744 26.8882C60.8375 28.2352 60.0107 29.5822 59.4939 30.9292C58.9771 32.1726 58.4603 33.3642 57.9436 34.504C56.5999 36.2654 55.5664 37.8197 54.8429 39.1667C54.3261 39.7884 54.0161 40.151 53.9127 40.2546C53.8093 40.2546 53.7577 40.3582 53.7577 40.5655C52.5174 41.8089 51.4838 43.2077 50.657 44.7619C49.9335 46.3161 49.0033 47.6631 47.8664 48.8029C47.0396 50.0463 46.4194 51.1343 46.006 52.0668C45.696 52.9993 45.1275 53.8283 44.3007 54.5536C43.8872 55.3825 43.4738 56.2114 43.0604 57.0403C42.7503 57.7656 42.3886 58.5428 41.9752 59.3717C41.045 61.444 39.9081 63.4645 38.5644 65.4332C38.5644 65.9513 38.4094 66.3657 38.0993 66.6766C37.8926 66.9874 37.6859 67.3501 37.4792 67.7645C37.8926 68.0754 38.3061 68.1272 38.7195 67.92C39.1329 67.7127 39.4946 67.5055 39.8047 67.2983C42.1819 65.9513 44.7658 64.8115 47.5563 63.879C50.3469 62.8428 52.8791 61.5476 55.153 59.9934C57.1167 58.8536 58.9254 57.8175 60.5791 56.8849C62.2328 55.8488 63.8348 54.7608 65.3851 53.621C66.9355 52.7921 68.124 52.1704 68.9509 51.7559C69.7777 51.2379 70.7596 50.7716 71.8965 50.3571C72.7234 49.6318 73.6019 49.0101 74.5321 48.4921C75.4623 47.974 76.1858 47.3523 76.7025 46.627C77.8394 45.6944 78.873 44.6583 79.8032 43.5185C80.7334 42.2751 81.7153 41.1354 82.7488 40.0992C83.2656 39.9956 83.5757 39.8402 83.679 39.6329C83.7824 39.3221 84.0924 39.1667 84.6092 39.1667C85.4361 38.0269 86.4179 37.0425 87.5548 36.2136C88.7951 35.2811 89.7253 34.2449 90.3454 33.1052C90.8622 32.2762 91.224 31.4473 91.4307 30.6184C91.7407 29.7895 92.1542 28.8569 92.6709 27.8208C92.4642 26.9918 92.6193 26.1629 93.136 25.334C93.7562 24.4015 93.9629 23.5725 93.7562 22.8472C93.5494 22.1219 93.136 21.5002 92.5159 20.9821C91.8958 20.3604 91.4307 19.7388 91.1206 19.1171C90.9139 18.2881 90.6555 17.6664 90.3454 17.252C90.1387 16.8375 89.932 16.3194 89.7253 15.6978C89.3119 15.4905 88.9501 15.2833 88.6401 15.0761C88.33 14.8688 87.8132 14.817 87.0897 14.9206C86.573 14.7134 85.8495 14.6616 84.9193 14.7652C84.0924 14.7652 83.2656 14.7134 82.4388 14.6098Z" fill="#333333"/>
<path d="M203.364 4.35185C204.295 4.86993 204.915 5.54343 205.225 6.37235C205.535 7.20128 205.742 8.23743 205.845 9.48082C205.845 10.3097 205.793 11.0869 205.69 11.8122C205.69 12.4339 205.793 13.1592 206 13.9881C205.69 14.6098 205.277 15.2315 204.76 15.8532C204.243 16.3713 203.881 17.0448 203.675 17.8737C202.744 20.1532 201.607 22.1737 200.264 23.9352C199.024 25.6966 197.783 27.6135 196.543 29.6858C195.406 30.722 194.476 32.0172 193.752 33.5714C193.132 35.022 192.512 36.5763 191.892 38.2341C189.825 41.6534 187.809 45.1246 185.846 48.6475C183.985 52.1704 182.177 55.7451 180.42 59.3717C181.867 59.6825 183.314 59.9934 184.76 60.3042C186.311 60.6151 187.706 61.0813 188.946 61.703C189.463 62.532 189.825 62.9982 190.032 63.1018C190.342 63.1018 190.393 63.2573 190.187 63.5681C190.393 65.0187 190.29 66.0031 189.877 66.5212C189.463 67.0392 188.843 67.091 188.016 66.6766C187.293 66.8838 186.724 66.8838 186.311 66.6766C184.657 67.091 183.107 67.4019 181.66 67.6091C180.213 67.8164 178.559 68.0236 176.699 68.2308C176.079 69.5778 175.459 70.873 174.838 72.1164C174.218 73.3598 173.598 74.655 172.978 76.002C169.877 81.4936 167.035 87.037 164.451 92.6323C161.971 98.1239 159.645 103.823 157.475 109.729C157.268 110.661 157.061 111.542 156.855 112.371C156.648 113.2 156.338 113.977 155.924 114.702C155.718 115.946 155.408 117.034 154.994 117.966C154.787 118.484 154.632 118.951 154.529 119.365C154.426 119.883 154.271 120.401 154.064 120.919C153.754 121.748 153.289 122.37 152.669 122.784C152.152 123.199 151.738 123.769 151.428 124.494C150.808 123.872 150.291 123.821 149.878 124.339C149.568 124.96 149.31 125.53 149.103 126.048C147.966 126.256 147.139 125.996 146.622 125.271C146.209 124.546 146.002 123.769 146.002 122.94C145.589 122.422 145.072 122.163 144.452 122.163C143.935 122.266 143.418 122.059 142.902 121.541C142.075 118.536 141.3 116.101 140.576 114.236C139.853 112.371 139.077 110.61 138.251 108.952C138.044 108.123 137.837 107.397 137.63 106.776C137.424 106.05 137.217 105.325 137.01 104.6C136.804 104.082 136.545 103.564 136.235 103.046C136.028 102.528 135.822 102.009 135.615 101.491C135.408 101.181 135.305 100.87 135.305 100.559C135.305 100.248 135.202 99.9372 134.995 99.6263C134.478 98.4865 133.858 97.3468 133.135 96.207C132.411 95.0672 131.739 93.9793 131.119 92.9431C130.292 91.907 129.775 91.1298 129.569 90.6118C129.362 90.0937 129 89.6274 128.484 89.213C127.863 87.9696 127.553 87.2443 127.553 87.037C127.553 86.7262 127.45 86.4671 127.243 86.2599C126.52 85.431 126.003 84.8093 125.693 84.3948C125.383 83.9804 125.021 83.6695 124.608 83.4623C124.091 83.1515 123.522 82.8924 122.902 82.6852C122.282 82.4779 121.714 82.2189 121.197 81.9081C120.68 81.7008 120.112 81.4936 119.492 81.2864C118.975 80.9755 118.355 80.7165 117.631 80.5093C116.701 82.3743 115.926 84.343 115.306 86.4153C114.686 88.4876 113.755 90.3527 112.515 92.0106C111.895 93.4612 111.172 94.9118 110.345 96.3624C109.621 97.7094 108.949 99.1082 108.329 100.559C107.812 101.284 107.451 102.113 107.244 103.046C107.037 103.875 106.727 104.703 106.314 105.532C106.004 106.154 105.642 106.776 105.229 107.397C104.815 108.019 104.402 108.641 103.988 109.263C102.851 111.128 101.404 112.734 99.6474 114.081C97.9937 115.428 96.4434 116.93 94.9964 118.588C93.8595 119.52 92.8776 120.09 92.0508 120.298C91.3273 120.608 90.5521 120.505 89.7253 119.987C89.4152 119.572 89.1052 119.52 88.7951 119.831C88.5884 120.246 88.3817 120.557 88.175 120.764C87.4515 120.764 86.9864 120.608 86.7797 120.298C86.4696 120.09 86.1079 119.78 85.6944 119.365C85.9012 118.433 86.2629 117.604 86.7797 116.878C87.1931 116.153 87.6065 115.376 88.0199 114.547C88.5367 114.34 88.8468 113.925 88.9501 113.304C89.0535 112.682 89.3119 112.216 89.7253 111.905C90.0354 110.454 90.3971 109.159 90.8105 108.019C91.3273 106.879 91.9991 105.791 92.826 104.755C93.0327 104.237 93.2394 103.719 93.4461 103.201C93.6528 102.579 93.9112 101.958 94.2213 101.336C94.5313 100.818 94.8931 100.352 95.3065 99.9372C95.8233 99.5227 96.185 99.0564 96.3917 98.5384C97.1152 96.2588 97.8387 94.4973 98.5622 93.254C99.2857 91.907 100.009 90.56 100.733 89.213C101.456 87.037 102.283 85.0165 103.213 83.1515C104.143 81.1828 105.125 79.2141 106.159 77.2454C105.642 77.0381 105.384 76.5719 105.384 75.8466C105.384 75.0176 105.125 74.4477 104.608 74.1369C104.402 71.8574 103.627 70.1995 102.283 69.1634C102.8 68.438 103.058 67.7645 103.058 67.1429C103.265 66.9356 103.523 66.7284 103.833 66.5212C104.247 66.3139 104.712 66.1067 105.229 65.8995C105.642 65.6922 106.004 65.5368 106.314 65.4332C106.624 65.226 107.037 65.0705 107.554 64.9669C108.381 64.8633 109.156 64.8115 109.88 64.8115C110.706 64.7079 111.533 64.5525 112.36 64.3452C113.084 63.2055 113.652 62.0139 114.065 60.7705C114.479 59.5271 115.099 58.4392 115.926 57.5066C116.029 57.1958 116.184 56.8849 116.391 56.5741C116.598 56.2632 116.649 55.9524 116.546 55.6415C117.373 54.6054 118.096 53.4656 118.716 52.2222C119.337 50.9788 120.06 49.7873 120.887 48.6475C121.61 46.9896 122.437 45.4872 123.367 44.1402C124.401 42.6896 125.331 41.0836 126.158 39.3221C127.088 38.1823 127.863 36.6799 128.484 34.8148C129.207 32.9497 129.827 31.2401 130.344 29.6858C130.551 29.1678 130.654 28.7533 130.654 28.4425C130.654 28.028 130.757 27.6135 130.964 27.1991C131.171 26.681 131.481 26.1111 131.894 25.4894C132.308 24.8677 132.669 24.246 132.979 23.6243C133.393 22.899 133.755 22.2255 134.065 21.6038C134.375 20.9821 134.633 20.2568 134.84 19.4279C134.53 18.8062 134.013 18.7026 133.29 19.1171C132.669 19.4279 131.946 19.7906 131.119 20.205C130.292 20.6195 129.517 21.0339 128.794 21.4484C128.173 21.8629 127.502 22.3291 126.778 22.8472C122.231 25.1268 118.251 27.7172 114.841 30.6184C114.324 30.722 113.807 30.8774 113.29 31.0847C112.774 31.2919 112.153 31.4473 111.43 31.5509C110.706 31.0328 110.293 30.722 110.19 30.6184C110.19 30.5148 110.138 30.3593 110.035 30.1521C110.345 29.8413 110.861 29.5304 111.585 29.2196C112.308 28.9087 112.67 28.4943 112.67 27.9762C112.567 26.0075 113.084 24.5051 114.221 23.4689C115.461 22.3291 116.649 21.2412 117.786 20.205C119.337 19.2725 120.68 18.5472 121.817 18.0291C122.954 17.4074 124.039 16.6821 125.073 15.8532C126.416 15.3351 127.708 14.7652 128.949 14.1435C130.292 13.4182 131.636 12.7447 132.979 12.123C133.496 11.9158 133.961 11.6049 134.375 11.1905C134.892 10.776 135.408 10.3616 135.925 9.94709C137.165 9.11817 138.457 8.28924 139.801 7.46032C141.248 6.63139 142.695 5.80247 144.142 4.97354C144.969 4.76631 145.382 4.61089 145.382 4.50727C145.485 4.40366 145.641 4.30004 145.847 4.19643C146.777 3.88558 147.501 3.62654 148.018 3.41931C148.638 3.10847 149.206 2.79762 149.723 2.48677C150.55 2.17593 151.325 1.81327 152.049 1.39881C152.875 0.984347 153.754 0.828924 154.684 0.93254C155.511 0.93254 156.286 1.29519 157.01 2.0205C157.733 2.74581 157.681 3.47112 156.855 4.19643C157.681 5.02535 158.095 6.16512 158.095 7.61574C158.095 9.06636 158.198 10.517 158.405 11.9676C158.405 12.4857 158.457 13.0037 158.56 13.5218C158.663 13.9363 158.663 14.3507 158.56 14.7652C158.457 15.2833 158.25 15.8014 157.94 16.3194C157.733 16.7339 157.63 17.1484 157.63 17.5628C157.216 18.0809 156.906 18.6508 156.7 19.2725C156.493 19.7906 156.183 20.3086 155.769 20.8267C155.563 21.7593 155.201 22.4846 154.684 23.0026C154.167 23.5207 153.754 24.0906 153.444 24.7123C152.514 25.4376 151.79 26.1111 151.273 26.7328C150.86 26.7328 150.602 26.94 150.498 27.3545C150.498 27.6653 150.395 27.9244 150.188 28.1316C148.121 28.6497 146.364 29.8413 144.917 31.7063C143.573 33.4678 142.23 35.3329 140.886 37.3016C139.129 38.4414 137.682 39.6847 136.545 41.0317C136.132 41.5498 135.77 42.1715 135.46 42.8968C135.253 43.5185 134.943 44.1402 134.53 44.7619C133.703 46.1089 132.824 47.6631 131.894 49.4246C130.964 51.0824 130.086 52.6367 129.259 54.0873C129.052 54.709 128.794 55.2789 128.484 55.797C128.173 56.315 127.915 56.9367 127.708 57.662C127.192 58.6982 126.778 59.4753 126.468 59.9934C126.158 60.5115 125.9 61.185 125.693 62.0139C127.45 62.0139 129.207 61.9103 130.964 61.703C132.721 61.4958 134.478 61.2886 136.235 61.0813C138.922 61.2886 141.403 61.0295 143.677 60.3042C146.054 59.4753 148.483 59.009 150.963 58.9054C151.377 58.6982 151.738 58.6464 152.049 58.75C152.359 58.75 152.72 58.6982 153.134 58.5946C155.408 58.491 157.681 58.4392 159.955 58.4392C162.332 58.3355 164.761 58.3873 167.242 58.5946C167.655 58.3873 167.965 58.0765 168.172 57.662C168.482 57.2476 168.74 56.8331 168.947 56.4186C169.154 55.9006 169.412 55.4343 169.722 55.0198C170.136 54.6054 170.446 54.1909 170.652 53.7765C170.963 52.9475 171.273 52.3776 171.583 52.0668C171.893 51.7559 172.151 51.3415 172.358 50.8234C172.978 49.58 173.34 48.8547 173.443 48.6475C173.65 48.3366 173.857 47.974 174.063 47.5595C175.82 44.5547 177.319 42.0161 178.559 39.9438C178.766 39.6329 178.921 39.3221 179.024 39.0112C179.231 38.5968 179.438 38.1823 179.644 37.7679C179.851 37.3534 179.954 36.8871 179.954 36.369C180.058 35.851 180.368 35.3847 180.885 34.9702C181.298 33.9341 181.763 32.8461 182.28 31.7063C182.9 30.5666 183.469 29.4268 183.985 28.287C184.502 27.2509 185.019 26.2665 185.536 25.334C186.052 24.2978 186.569 23.2617 187.086 22.2255C187.293 21.7075 187.499 21.2412 187.706 20.8267C187.913 20.3086 188.12 19.7906 188.326 19.2725C189.153 18.1327 189.825 16.9929 190.342 15.8532C190.755 15.2315 191.169 14.6098 191.582 13.9881C191.995 13.3664 192.409 12.6929 192.822 11.9676C193.339 10.6206 193.907 9.42901 194.528 8.39286C194.734 7.97839 194.941 7.61574 195.148 7.30489C195.354 6.89043 195.509 6.57959 195.613 6.37235C195.819 6.06151 195.871 5.75066 195.768 5.43981C195.664 5.02535 195.664 4.6627 195.768 4.35185C195.975 4.04101 196.233 3.73016 196.543 3.41931C196.853 3.00485 197.111 2.6422 197.318 2.33135C197.525 2.12412 197.783 1.86508 198.093 1.55423C198.403 1.13977 198.817 1.08796 199.334 1.39881C199.644 1.08796 199.954 0.828924 200.264 0.621693C200.677 0.414462 201.091 0.207231 201.504 0C202.021 0.103616 202.383 0.310847 202.589 0.621693C202.796 0.828924 203.106 1.03616 203.519 1.24339C203.726 1.76146 203.881 2.33135 203.985 2.95304C204.088 3.57474 203.881 4.04101 203.364 4.35185ZM157.32 69.4742C157.01 69.3706 156.648 69.3706 156.234 69.4742C155.924 69.4742 155.614 69.4224 155.304 69.3188C154.581 69.3188 153.857 69.1634 153.134 68.8525C150.963 68.7489 148.793 68.8525 146.622 69.1634C144.555 69.4742 142.695 69.526 141.041 69.3188C138.251 69.7332 135.408 70.0959 132.514 70.4067C129.724 70.614 126.985 70.9766 124.298 71.4947C123.678 71.5983 123.057 71.7537 122.437 71.961C121.92 72.0646 121.404 72.22 120.887 72.4272C120.68 72.8417 120.525 73.2562 120.422 73.6706C120.318 73.9815 120.163 74.3959 119.957 74.914C121.404 76.5719 123.057 78.0743 124.918 79.4213C126.261 81.0791 127.605 82.6334 128.949 84.084C130.396 85.5346 131.843 86.9852 133.29 88.4358C134.116 88.9539 134.685 89.731 134.995 90.7672C135.615 91.2853 136.08 91.907 136.39 92.6323C136.804 93.3576 137.269 94.0829 137.786 94.8082C138.819 94.9118 139.491 95.3263 139.801 96.0516C140.111 96.7769 140.524 97.4504 141.041 98.0721C141.868 99.4191 142.798 100.766 143.832 102.113C144.969 103.46 145.847 104.859 146.467 106.31C146.777 106.517 146.984 106.776 147.087 107.087C147.191 107.294 147.398 107.501 147.708 107.708C148.741 104.289 149.62 101.284 150.343 98.6938C151.17 96.1034 152.152 93.5648 153.289 91.078C153.392 90.3527 153.651 89.6274 154.064 88.9021C154.581 88.1768 154.787 87.3997 154.684 86.5708C155.821 83.8768 157.01 81.2346 158.25 78.6442C159.49 76.0538 160.679 73.3598 161.816 70.5622C160.989 70.4586 160.214 70.3031 159.49 70.0959C158.87 69.8887 158.146 69.6814 157.32 69.4742Z" fill="#333333"/>
<path d="M191.117 105.066C191.324 105.273 191.634 105.429 192.047 105.532C192.46 105.636 192.771 105.843 192.977 106.154C193.494 105.947 194.011 105.947 194.528 106.154C195.044 106.361 195.561 106.569 196.078 106.776C196.388 107.501 196.956 108.278 197.783 109.107C198.093 110.247 198.248 111.335 198.248 112.371C198.352 113.407 198.197 114.392 197.783 115.324C196.956 116.049 196.388 116.878 196.078 117.811C195.768 118.64 195.251 119.313 194.528 119.831C194.011 120.349 193.391 120.764 192.667 121.075C192.047 121.386 191.375 121.8 190.652 122.318C189.308 122.733 188.223 122.733 187.396 122.318C186.466 122.007 185.639 121.541 184.916 120.919C183.882 119.987 183.262 118.795 183.055 117.345C182.848 115.894 182.952 114.443 183.365 112.993C183.779 111.438 184.347 110.04 185.071 108.796C185.794 107.449 186.569 106.517 187.396 105.999C188.016 105.791 188.585 105.636 189.101 105.532C189.618 105.325 190.29 105.17 191.117 105.066Z" fill="#333333"/>
</svg>
